<?xml version="1.0" encoding="utf-8"?>
<!-- Generator: Adobe Illustrator 15.0.0, SVG Export Plug-In . SVG Version: 6.00 Build 0)  -->
<!DOCTYPE svg PUBLIC "-//W3C//DTD SVG 1.1//EN" "http://www.w3.org/Graphics/SVG/1.1/DTD/svg11.dtd">
<!-- License: CC0. Made by SVG Repo: https://www.svgrepo.com/svg/76665/video -->
<svg version="1.1" id="Capa_1" xmlns="http://www.w3.org/2000/svg" xmlns:xlink="http://www.w3.org/1999/xlink" x="0px" y="0px"
	 width="600px" height="600px" viewBox="0 0 600 600" enable-background="new 0 0 600 600" xml:space="preserve">
<g>
	<path fill="#4C6B62" d="M500,423.139C500,465.587,465.587,500,423.138,500H176.862C134.411,500,100,465.587,100,423.139V176.862
		C100,134.413,134.411,100,176.862,100h246.275C465.587,100,500,134.413,500,176.862V423.139z"/>
	<path fill="#426158" d="M500,423.139v-93.164l-75.761-56.717l-108.301-6.265l-61.413-44.903L172.86,378.353L334.085,500h89.053
		C465.587,500,500,465.587,500,423.139z"/>
	<g>
		<path fill="#9F4456" d="M232.138,383.688c0,10.812-8.768,19.579-19.581,19.579l0,0c-10.813,0-19.579-8.768-19.579-19.579v-6.325
			c0-10.814,8.766-19.582,19.579-19.582l0,0c10.813,0,19.581,8.768,19.581,19.582V383.688z"/>
		<path fill="#9F4456" d="M406.003,383.688c0,10.812-8.766,19.579-19.578,19.579l0,0c-10.812,0-19.581-8.768-19.581-19.579v-6.325
			c0-10.814,8.769-19.582,19.581-19.582l0,0c10.812,0,19.578,8.768,19.578,19.582V383.688z"/>
		<path fill="#E7BD79" d="M404.438,266.993h-107.43c-3.092-25.301-24.638-44.903-50.774-44.903
			c-26.135,0-47.681,19.602-50.773,44.903h-0.916c-19.033,0-34.46,15.428-34.46,34.459v50.124c0,19.03,15.428,34.46,34.46,34.46
			h209.893c19.033,0,34.461-15.43,34.461-34.46v-50.124C438.898,282.42,423.471,266.993,404.438,266.993z"/>
		<path fill="#223E52" d="M298.665,273.257c0-28.953-23.473-52.434-52.432-52.434c-28.957,0-52.431,23.481-52.431,52.434
			c0,28.958,23.474,52.435,52.431,52.435C275.192,325.692,298.665,302.215,298.665,273.257z"/>
		<path fill="#223E52" d="M402.872,312.787c0,4.545-3.684,8.224-8.224,8.224h-70.486c-4.542,0-8.224-3.679-8.224-8.224l0,0
			c0-4.54,3.682-8.224,8.224-8.224h70.486C399.188,304.563,402.872,308.247,402.872,312.787L402.872,312.787z"/>
		<path fill="#223E52" d="M402.872,349.557c0,4.544-3.684,8.224-8.224,8.224h-70.486c-4.542,0-8.224-3.68-8.224-8.224l0,0
			c0-4.54,3.682-8.22,8.224-8.22h70.486C399.188,341.337,402.872,345.017,402.872,349.557L402.872,349.557z"/>
		<path fill="#8DB3B3" d="M277.932,273.257c0-17.504-14.191-31.699-31.699-31.699c-17.506,0-31.697,14.195-31.697,31.699
			c0,17.506,14.191,31.702,31.697,31.702C263.741,304.959,277.932,290.763,277.932,273.257z"/>
	</g>
	<circle fill="#FFFFFF" cx="260.332" cy="262.442" r="10.815"/>
</g>
</svg>
